<?xml version="1.0" encoding="UTF-8"?>
<svg xmlns="http://www.w3.org/2000/svg" version="1.1" width="397" height="266" style="background: transparent;">

<path d="M0 0 C3.60425258 2.00847663 6.77364598 4.43904655 10 7 C11.36125 7.928125 11.36125 7.928125 12.75 8.875 C18.90965883 14.69245556 21.32754957 20.67419446 23.25 28.75 C25.80031507 39.30419589 31.19063905 46.47136771 39 54 C39.99 53.01 40.98 52.02 42 51 C43.485 51.495 43.485 51.495 45 52 C43.95728026 54.2458579 42.91350633 56.10978043 41.375 58.0625 C39.7106265 60.0117832 39.7106265 60.0117832 40 63 C45.03633432 62.61258967 46.84809931 60.42551347 50.0625 56.6875 C51.02634019 55.59301733 51.99256732 54.50063294 52.9609375 53.41015625 C53.45819336 52.84699707 53.95544922 52.28383789 54.46777344 51.70361328 C60.35985413 45.15247576 66.55074857 38.75894356 73.76171875 33.66796875 C76.86147263 31.35803 79.76265902 28.83835495 82.6875 26.3125 C83.28481934 25.79824463 83.88213867 25.28398926 84.49755859 24.75415039 C86.93857104 22.65015556 89.37652989 20.54277781 91.80712891 18.42675781 C93.53354078 16.92499321 95.26630554 15.43084538 97 13.9375 C97.77283325 13.25844604 97.77283325 13.25844604 98.5612793 12.56567383 C102.86556434 8.87178667 106.79867749 6.23585598 112.5 5.625 C119.7782803 6.40481575 122.82545368 9.81611304 127.25390625 15.19140625 C129.55631355 17.57622634 131.77899619 18.37151145 135 19 C135.41100672 24.36176951 133.60911572 26.48431449 130.2890625 30.4921875 C122.79938997 38.69759666 114.27707514 45.51378402 105.40283203 52.14550781 C94.80069485 60.06971993 84.99470767 68.53961331 75.57958984 77.83007812 C74.34709333 79.03922069 73.10564027 80.23929293 71.85595703 81.43066406 C70.02479315 83.17684523 68.22128445 84.94774638 66.421875 86.7265625 C65.86062927 87.25279205 65.29938354 87.77902161 64.72113037 88.32119751 C61.8775908 91.19767493 60.99733826 92.52820732 61.02050781 96.63500977 C61.8600124 99.51908049 62.61896187 101.62704492 64.25 104.11328125 C64.6934375 104.80357422 65.136875 105.49386719 65.59375 106.20507812 C66.28984375 107.24825195 66.28984375 107.24825195 67 108.3125 C67.91704995 109.72501165 68.83373417 111.13776083 69.75 112.55078125 C70.15734375 113.16606689 70.5646875 113.78135254 70.984375 114.4152832 C72 116 72 116 73 118 C73.12955078 116.53240234 73.12955078 116.53240234 73.26171875 115.03515625 C75.0734987 98.13075063 75.0734987 98.13075063 82.15234375 92.1953125 C90.63988925 86.29216106 97.69946864 85.1076545 108 86 C116.78244671 87.99356152 121.78195851 91.53390375 126.75 99 C131.28590873 106.6499025 130.9551534 115.96276993 128.8203125 124.45703125 C125.76857959 133.91740328 121.40583255 142.68038537 116 151 C116.71027344 151.12117187 117.42054688 151.24234375 118.15234375 151.3671875 C119.53099609 151.61855469 119.53099609 151.61855469 120.9375 151.875 C121.85402344 152.03742188 122.77054688 152.19984375 123.71484375 152.3671875 C124.46894531 152.57601562 125.22304687 152.78484375 126 153 C127.88077284 156.76154568 127.22802645 161.29823274 127.25 165.4375 C127.2809375 166.88866211 127.2809375 166.88866211 127.3125 168.36914062 C127.32023437 169.76229492 127.32023437 169.76229492 127.328125 171.18359375 C127.3374707 172.03493896 127.34681641 172.88628418 127.35644531 173.76342773 C127 176 127 176 125.89428711 177.78271484 C123.05275661 179.60870673 120.7133094 179.33685558 117.36328125 179.29296875 C116.06455078 179.28330078 114.76582031 179.27363281 113.42773438 179.26367188 C112.05598361 179.23860585 110.68423882 179.21321101 109.3125 179.1875 C107.92905076 179.1724502 106.54558599 179.1587623 105.16210938 179.14648438 C101.77434793 179.11107223 98.38736861 179.06168054 95 179 C94.70939697 179.60755127 94.41879395 180.21510254 94.11938477 180.84106445 C92.69859718 183.58130974 90.88457909 185.79517234 88.9375 188.1875 C88.22464844 189.06792969 87.51179687 189.94835937 86.77734375 190.85546875 C85.88495567 191.93221832 84.98887464 193.01112536 84 194 C81.66702567 194.04092937 79.33294775 194.04241723 77 194 C77 192.68 77 191.36 77 190 C76.236875 190.495 75.47375 190.99 74.6875 191.5 C72 193 72 193 69 193 C51.56600671 155.41559463 51.56600671 155.41559463 43.875 138.1875 C43.37323242 137.06947998 42.87146484 135.95145996 42.35449219 134.79956055 C41.90493164 133.78676025 41.45537109 132.77395996 40.9921875 131.73046875 C40.60401855 130.85801514 40.21584961 129.98556152 39.81591797 129.08666992 C39 127 39 127 39 125 C33.32355571 126.36871273 30.77867558 130.50349899 27.4375 134.9375 C26.82181152 135.74598389 26.20612305 136.55446777 25.57177734 137.38745117 C14.75855193 151.7971949 5.99774164 167.31895173 -2.56982422 183.1262207 C-2.90033783 183.73445679 -3.23085144 184.34269287 -3.57138062 184.96936035 C-4.47292752 186.63080012 -5.37039504 188.29445165 -6.26757812 189.95825195 C-11.28831775 198.77355565 -11.28831775 198.77355565 -14.75 199.875 C-15.4925 199.91625 -16.235 199.9575 -17 200 C-17 189.41677758 -15.43888438 183.08259653 -10.4375 173.6875 C-9.86394775 172.59880615 -9.29039551 171.5101123 -8.69946289 170.38842773 C-0.05325441 154.21945095 9.77881595 138.73347555 19.875 123.4375 C20.61568726 122.31226929 20.61568726 122.31226929 21.37133789 121.16430664 C24.75353926 116.12323037 24.75353926 116.12323037 27 115 C27 113.68 27 112.36 27 111 C22.97088605 116.44691711 18.95244901 121.9015784 14.94140625 127.36181641 C13.15389028 129.79087797 11.35868535 132.21406666 9.5625 134.63671875 C-0.59967301 148.42532153 -11.10869248 163.02600728 -17.19140625 179.16015625 C-20.36854628 187.51633332 -20.36854628 187.51633332 -23.9375 190.25 C-31.16581248 192.02019897 -31.16581248 192.02019897 -34.98046875 189.8984375 C-39.35190664 186.83104957 -44.02915444 183.09766784 -46 178 C-46.61787581 171.57274839 -45.41275409 167.72115616 -42.25 162.1875 C-41.8480542 161.45958252 -41.4461084 160.73166504 -41.03198242 159.98168945 C-32.05782569 143.97064886 -21.62322214 128.94412141 -11 114 C-9.91991752 112.47311965 -8.8404714 110.94578892 -7.76171875 109.41796875 C-6.99057739 108.32633423 -6.99057739 108.32633423 -6.20385742 107.21264648 C-5.20620449 105.79800643 -4.2102256 104.38218403 -3.21606445 102.96508789 C-0.92333412 99.70018059 1.39126428 96.46019398 3.78125 93.265625 C4.21010498 92.68031006 4.63895996 92.09499512 5.08081055 91.49194336 C6.22613333 89.93026339 7.38781798 88.38061933 8.55078125 86.83203125 C10.39198 83.23400134 10.21198106 81.82577155 9 78 C7.77393451 75.60774664 6.51396628 73.35424994 5.125 71.0625 C1.16568889 64.26954039 -2.40279572 57.33422315 -5.8125 50.25 C-6.49578369 48.85019897 -6.49578369 48.85019897 -7.19287109 47.42211914 C-15 31.05358406 -15 31.05358406 -15 24 C-14.34 24 -13.68 24 -13 24 C-13.27263672 23.40461426 -13.54527344 22.80922852 -13.82617188 22.19580078 C-15.05466581 19.50728906 -16.27739692 16.81619537 -17.5 14.125 C-17.92925781 13.18785156 -18.35851562 12.25070313 -18.80078125 11.28515625 C-19.40986328 9.94130859 -19.40986328 9.94130859 -20.03125 8.5703125 C-20.40830078 7.74289551 -20.78535156 6.91547852 -21.17382812 6.06298828 C-22 4 -22 4 -22 2 C-20.80375 2.04125 -19.6075 2.0825 -18.375 2.125 C-15.51625558 2.13503068 -13.76553497 1.92184499 -11 1 C-7.17216063 -0.27594646 -3.93377492 -0.92273733 0 0 Z " fill="#020202" transform="translate(99,39)"/>
<path d="M0 0 C10.15409198 6.12892016 17.72768652 13.55340364 22.265625 24.64453125 C22.77241956 26.80037753 23.23015932 28.96828866 23.640625 31.14453125 C25.04212856 38.32401269 28.61154112 43.12817054 33.265625 48.64453125 C36.20654087 48.46037693 36.20654087 48.46037693 39.265625 47.64453125 C40.37815777 45.86428634 40.37815777 45.86428634 41.265625 43.64453125 C43.0421422 41.83379542 44.81234261 40.13832017 46.703125 38.45703125 C47.24098633 37.97218262 47.77884766 37.48733398 48.33300781 36.98779297 C53.50223931 32.36341001 58.85918326 27.98775244 64.265625 23.64453125 C65.52954669 22.61308208 66.79250708 21.58045423 68.0546875 20.546875 C71.45370096 17.76448402 74.86678872 15.00016648 78.28759766 12.24462891 C80.17835564 10.71512658 82.05603735 9.17065222 83.93359375 7.625 C85.06434306 6.71389835 86.19581323 5.80369035 87.328125 4.89453125 C88.30910156 4.0953125 89.29007813 3.29609375 90.30078125 2.47265625 C93.73422268 0.35559355 96.2571247 -0.16935981 100.265625 -0.35546875 C102.703125 0.95703125 102.703125 0.95703125 104.265625 2.64453125 C104.265625 3.30453125 104.265625 3.96453125 104.265625 4.64453125 C104.8225 4.598125 105.379375 4.55171875 105.953125 4.50390625 C111.95581119 4.21999542 116.33824579 5.09551583 121.265625 8.64453125 C122.6640625 10.140625 122.6640625 10.140625 123.890625 11.70703125 C126.47857597 14.90791797 128.57374564 15.95910806 132.265625 17.64453125 C134.140625 18.83203125 134.140625 18.83203125 135.265625 20.64453125 C136.02664166 26.25702913 135.36020595 29.75424871 132.12109375 34.390625 C123.57337197 44.77385756 113.23235803 52.88172546 102.55517578 60.93457031 C91.09162003 69.60915709 80.63596425 79.26385491 70.48046875 89.43359375 C69.16436793 90.74737341 67.82218743 92.03702068 66.4296875 93.26953125 C63.19689494 96.06950192 63.19689494 96.06950192 62.078125 100.01953125 C63.78614743 103.79515977 65.95619262 107.2102093 68.265625 110.64453125 C68.925625 110.31453125 69.585625 109.98453125 70.265625 109.64453125 C69.935625 113.93453125 69.605625 118.22453125 69.265625 122.64453125 C65.6451285 119.02403475 63.25161771 115.10921362 60.578125 110.76953125 C60.06701172 109.96644531 59.55589844 109.16335937 59.02929688 108.3359375 C58.54654297 107.55347656 58.06378906 106.77101563 57.56640625 105.96484375 C57.12466064 105.25602051 56.68291504 104.54719727 56.2277832 103.81689453 C54.98613002 101.01348676 54.66492437 99.68584074 55.265625 96.64453125 C57.02839026 94.13503087 59.16221694 92.04870348 61.34375 89.90234375 C61.97786804 89.2615387 62.61198608 88.62073364 63.26531982 87.96051025 C65.33427894 85.88174118 67.42311017 83.82456909 69.515625 81.76953125 C70.22235352 81.06789856 70.92908203 80.36626587 71.65722656 79.64337158 C81.89345781 69.49412968 92.29029926 60.46212542 104.11816406 52.20214844 C107.78801827 49.5402942 111.21876493 46.61484865 114.640625 43.64453125 C115.22972656 43.13970215 115.81882813 42.63487305 116.42578125 42.11474609 C121.34481929 37.79912152 125.63249349 33.09422851 129.265625 27.64453125 C129.43276069 25.01921601 129.43276069 25.01921601 129.265625 22.64453125 C128.42 22.47953125 127.574375 22.31453125 126.703125 22.14453125 C123.16612709 20.60111398 122.09213833 19.53649476 119.703125 16.64453125 C116.06702211 12.25256452 113.71023731 11.02799985 108.078125 10.14453125 C98.25773846 11.4324508 91.37609945 19.08180934 84.5 25.6171875 C79.27477254 30.56437819 73.66267942 35.07975516 67.921875 39.4140625 C62.15952624 43.82225931 57.01638065 48.71204589 51.890625 53.83203125 C51.20009033 54.52176025 50.50955566 55.21148926 49.7980957 55.92211914 C47.02493621 58.72584622 44.39798277 61.47583118 41.9609375 64.58203125 C40.265625 66.64453125 40.265625 66.64453125 37.515625 67.45703125 C36.773125 67.51890625 36.030625 67.58078125 35.265625 67.64453125 C34.453125 66.01953125 34.453125 66.01953125 34.265625 63.64453125 C35.86680897 61.59173129 37.53338836 59.58801626 39.265625 57.64453125 C39.265625 56.98453125 39.265625 56.32453125 39.265625 55.64453125 C38.6675 55.97453125 38.069375 56.30453125 37.453125 56.64453125 C35.265625 57.64453125 35.265625 57.64453125 32.265625 57.64453125 C29.77569421 55.27655456 27.8454759 52.4182132 25.828125 49.64453125 C25.23845947 48.8359668 24.64879395 48.02740234 24.04125977 47.19433594 C19.50970019 40.66297803 17.36451401 34.88751335 16.07421875 27.09765625 C13.79110915 17.34756503 4.95675146 11.26555098 -2.734375 5.64453125 C-5.90816613 4.05763569 -9.27016176 4.35801737 -12.734375 4.64453125 C-13.724375 4.99515625 -14.714375 5.34578125 -15.734375 5.70703125 C-19.76929383 6.96794339 -22.56471115 6.25545536 -26.734375 5.64453125 C-26.46173828 6.23991699 -26.18910156 6.83530273 -25.90820312 7.44873047 C-24.67970919 10.13724219 -23.45697808 12.82833588 -22.234375 15.51953125 C-21.80511719 16.45667969 -21.37585938 17.39382812 -20.93359375 18.359375 C-20.52753906 19.25527344 -20.12148437 20.15117188 -19.703125 21.07421875 C-19.32607422 21.90163574 -18.94902344 22.72905273 -18.56054688 23.58154297 C-17.734375 25.64453125 -17.734375 25.64453125 -17.734375 27.64453125 C-18.394375 27.64453125 -19.054375 27.64453125 -19.734375 27.64453125 C-13.86838052 46.34882067 -5.48595554 64.42448042 5.03515625 80.97265625 C6.51510702 84.18626364 6.47369304 85.35358727 5.265625 88.64453125 C3.83984375 91.16015625 3.83984375 91.16015625 1.953125 93.89453125 C1.22996094 94.94769531 0.50679687 96.00085938 -0.23828125 97.0859375 C-1.06906446 98.27300985 -1.90116427 99.45916152 -2.734375 100.64453125 C-3.18280762 101.28503418 -3.63124023 101.92553711 -4.09326172 102.58544922 C-8.60999586 109.0301525 -13.15718641 115.45303252 -17.75 121.84375 C-28.73732134 137.18182794 -38.76028876 153.04448383 -47.734375 169.64453125 C-48.33185547 170.73894531 -48.33185547 170.73894531 -48.94140625 171.85546875 C-50.40531919 175.15828711 -50.5333549 178.19439076 -49.734375 181.64453125 C-46.95997334 186.46076785 -43.14729636 191.84022413 -37.734375 193.64453125 C-33.04132013 193.66949431 -29.67805327 193.27365009 -25.734375 190.64453125 C-24.64256377 187.98620826 -23.67083442 185.35655622 -22.734375 182.64453125 C-15.12457171 161.98875831 -0.77106106 144.3293027 12.265625 126.83203125 C12.90081055 125.97754395 13.53599609 125.12305664 14.19042969 124.24267578 C14.79274414 123.44071777 15.39505859 122.63875977 16.015625 121.8125 C16.54671875 121.10375732 17.0778125 120.39501465 17.625 119.66479492 C19.3778049 117.50639306 21.269056 115.57735111 23.265625 113.64453125 C23.265625 115.29453125 23.265625 116.94453125 23.265625 118.64453125 C21.780625 119.13953125 21.780625 119.13953125 20.265625 119.64453125 C19.57698968 121.30224161 18.9164518 122.97161562 18.265625 124.64453125 C16.64116885 127.2981412 14.84611395 129.83501227 13.078125 132.39453125 C2.61361621 147.85507164 -6.92601829 163.90230658 -15.671875 180.39453125 C-16.18621094 181.35254639 -16.70054688 182.31056152 -17.23046875 183.29760742 C-17.69453125 184.19068604 -18.15859375 185.08376465 -18.63671875 186.00390625 C-19.04398193 186.78217773 -19.45124512 187.56044922 -19.87084961 188.36230469 C-20.8538484 190.96028962 -20.88518675 192.88667011 -20.734375 195.64453125 C-20.734375 198.48420356 -21.13704681 200.88188836 -21.734375 203.64453125 C-17.40696059 202.31815222 -15.86156823 200.93592252 -13.71875 196.98046875 C-12.93238159 195.55637695 -12.93238159 195.55637695 -12.13012695 194.10351562 C-11.58702881 193.08580078 -11.04393066 192.06808594 -10.484375 191.01953125 C-9.91227295 189.97861328 -9.3401709 188.93769531 -8.75073242 187.86523438 C-7.06613274 184.79828384 -5.39899786 181.7223576 -3.734375 178.64453125 C5.74090348 161.2972125 16.19282294 142.71733331 30.265625 128.64453125 C31.585625 128.64453125 32.905625 128.64453125 34.265625 128.64453125 C50.45085183 163.73732431 50.45085183 163.73732431 57.97842407 180.44717407 C58.54401518 181.70180194 59.11088599 182.95585372 59.67904663 184.20932007 C60.46294767 185.93994107 61.24139421 187.67302969 62.01953125 189.40625 C62.45595947 190.37522217 62.8923877 191.34419434 63.34204102 192.3425293 C64.265625 194.64453125 64.265625 194.64453125 64.265625 196.64453125 C65.68875 195.90203125 65.68875 195.90203125 67.140625 195.14453125 C70.265625 193.64453125 70.265625 193.64453125 72.265625 193.64453125 C72.265625 194.96453125 72.265625 196.28453125 72.265625 197.64453125 C76.76703173 197.46114061 78.75685001 197.12036902 82.1015625 193.9921875 C82.96710225 192.91223593 83.8133213 191.81654602 84.640625 190.70703125 C85.07761719 190.15595703 85.51460937 189.60488281 85.96484375 189.03710938 C87.58238191 186.97637577 89.09139066 184.99299993 90.265625 182.64453125 C92.245625 182.64453125 94.225625 182.64453125 96.265625 182.64453125 C94.76305621 187.14379622 92.26980176 190.62603551 89.390625 194.33203125 C88.95621094 194.91275391 88.52179688 195.49347656 88.07421875 196.09179688 C85.19152466 199.8358365 82.95941354 202.17409967 78.23852539 202.99853516 C75.93459269 203.13139836 73.63523441 203.21393825 71.328125 203.26953125 C70.13026367 203.35654297 70.13026367 203.35654297 68.90820312 203.4453125 C66.48316498 203.49755027 64.58262371 203.3668482 62.265625 202.64453125 C59.85056345 199.87560116 58.74995902 197.9417858 57.265625 194.64453125 C56.99583832 194.06376831 56.72605164 193.48300537 56.4480896 192.88464355 C54.44242995 188.56664763 52.51848417 184.21572916 50.61938477 179.84997559 C48.86516013 175.81854938 47.09093801 171.79595749 45.31640625 167.7734375 C44.96853058 166.98403778 44.62065491 166.19463806 44.26223755 165.38131714 C40.13307267 156.03840626 35.74724051 146.82322456 31.265625 137.64453125 C26.79826758 141.77332739 23.4748899 146.3638088 20.078125 151.39453125 C19.50642578 152.23798096 18.93472656 153.08143066 18.34570312 153.95043945 C9.58954786 166.9953987 2.06780638 180.65213524 -5.26953125 194.53588867 C-5.79160156 195.51533447 -6.31367187 196.49478027 -6.8515625 197.50390625 C-7.31159668 198.37499023 -7.77163086 199.24607422 -8.24560547 200.14355469 C-10.67596737 204.22630762 -13.06142388 208.13269412 -17.734375 209.64453125 C-21.34925224 210.0963909 -23.03570286 210.13549005 -26.046875 208.01953125 C-28.04670839 205.20495092 -28.42466553 203.05133538 -28.734375 199.64453125 C-29.45882812 199.6909375 -30.18328125 199.73734375 -30.9296875 199.78515625 C-38.40387818 200.0641927 -41.8472393 199.1035683 -47.5078125 194.06640625 C-52.2809493 189.59536672 -56.39218721 185.15512452 -57.05078125 178.3984375 C-56.68336588 174.03934897 -55.27513977 170.86399899 -53.234375 167.08203125 C-52.86763672 166.38078125 -52.50089844 165.67953125 -52.12304688 164.95703125 C-51.00922384 162.84401533 -49.87380215 160.74382403 -48.734375 158.64453125 C-48.156875 157.55269531 -47.579375 156.46085938 -46.984375 155.3359375 C-38.31168801 139.51989894 -27.88200887 124.49747469 -16.91357422 110.19702148 C-11.84793847 103.56970011 -7.28387179 96.6319058 -2.734375 89.64453125 C-1.744375 88.15953125 -1.744375 88.15953125 -0.734375 86.64453125 C-1.03409538 82.3168614 -2.94694361 79.29753731 -5.171875 75.64453125 C-13.97491488 60.74051543 -24.41825952 42.84244343 -25.2890625 25.28125 C-26.0881437 20.54984816 -28.37512509 16.3253399 -30.45703125 12.0390625 C-31.87104539 8.28133072 -32.19616107 5.62561325 -31.734375 1.64453125 C-28.38733963 -0.58682567 -28.20117456 -0.51089309 -24.546875 0.20703125 C-21.04828092 0.71006012 -18.96080609 0.58640326 -15.734375 -0.85546875 C-10.05298023 -3.25353282 -5.50269063 -2.72776235 0 0 Z " fill="#AAAAAA" transform="translate(103.734375,35.35546875)"/>
<path d="M0 0 C1.44729492 -0.00580078 1.44729492 -0.00580078 2.92382812 -0.01171875 C4.43299805 0.00568359 4.43299805 0.00568359 5.97265625 0.0234375 C6.97490234 0.01183594 7.97714844 0.00023438 9.00976562 -0.01171875 C9.97591797 -0.00785156 10.94207031 -0.00398438 11.9375 0 C13.25995728 0.00507568 13.25995728 0.00507568 14.60913086 0.01025391 C17.53538516 0.47847815 18.91295454 1.35277125 21.03515625 3.3984375 C21.64453125 6.31640625 21.64453125 6.31640625 21.78515625 9.5859375 C21.841875 10.67261719 21.89859375 11.75929687 21.95703125 12.87890625 C21.9828125 13.71035156 22.00859375 14.54179687 22.03515625 15.3984375 C22.51726562 14.39941406 22.999375 13.40039062 23.49609375 12.37109375 C24.13379714 11.06755299 24.77183536 9.76417599 25.41015625 8.4609375 C25.88582031 7.4719043 25.88582031 7.4719043 26.37109375 6.46289062 C28.80859375 1.51171875 28.80859375 1.51171875 31.03515625 0.3984375 C34.84196994 0.13066631 38.65747971 0.16687944 42.47265625 0.1484375 C44.0669043 0.1175 44.0669043 0.1175 45.69335938 0.0859375 C46.71236328 0.08078125 47.73136719 0.075625 48.78125 0.0703125 C49.71638428 0.0609668 50.65151855 0.05162109 51.61499023 0.04199219 C54.03515625 0.3984375 54.03515625 0.3984375 55.92602539 1.41894531 C57.76988744 4.7097297 56.90834631 7.90498146 56.03515625 11.3984375 C55.09309029 14.02366861 53.91205884 16.48062917 52.65625 18.96875 C52.15896141 19.99583572 52.15896141 19.99583572 51.65162659 21.04367065 C50.24787993 23.94210027 48.81728994 26.82702746 47.38891602 29.71337891 C46.34350727 31.83566595 45.31214061 33.96438279 44.28125 36.09375 C43.95628036 36.73764679 43.63131073 37.38154358 43.29649353 38.04495239 C41.36772078 42.03378744 40.43859778 44.98833169 41.03515625 49.3984375 C42.03933498 52.02336782 43.08480882 54.44618665 44.31640625 56.95703125 C45.00003289 58.40948973 45.6836256 59.86196418 46.3671875 61.31445312 C47.44992142 63.57837365 48.53714762 65.84007036 49.62646484 68.10083008 C50.68013809 70.29777463 51.71743642 72.50193072 52.75390625 74.70703125 C53.08201294 75.37391464 53.41011963 76.04079803 53.74816895 76.72789001 C55.79824189 81.10223831 56.63667623 84.58066647 56.03515625 89.3984375 C51.37427613 92.50569091 46.58111425 91.80706031 41.09765625 91.8359375 C40.00001953 91.86880859 38.90238281 91.90167969 37.77148438 91.93554688 C29.71811619 91.98959633 29.71811619 91.98959633 26.390625 89.109375 C25.94332031 88.21476562 25.49601562 87.32015625 25.03515625 86.3984375 C24.6896875 85.73199219 24.34421875 85.06554687 23.98828125 84.37890625 C23.33723958 82.71875 22.68619792 81.05859375 22.03515625 79.3984375 C21.87080078 80.44644531 21.87080078 80.44644531 21.703125 81.515625 C21.46529297 82.88074219 21.46529297 82.88074219 21.22265625 84.2734375 C21.07183594 85.17835938 20.92101562 86.08328125 20.765625 87.015625 C20.03515625 89.3984375 20.03515625 89.3984375 17.03515625 91.3984375 C13.57127491 91.85486744 10.08844871 91.76874242 6.59765625 91.7734375 C5.64310547 91.79792969 4.68855469 91.82242188 3.70507812 91.84765625 C2.78404297 91.85152344 1.86300781 91.85539062 0.9140625 91.859375 C-0.34555298 91.87170166 -0.34555298 91.87170166 -1.63061523 91.88427734 C-4.9240638 91.1987881 -5.92825086 90.07394824 -7.96484375 87.3984375 C-8.35436154 84.56195537 -8.50230819 82.11529637 -8.46655273 79.28100586 C-8.47195572 78.4659407 -8.4773587 77.65087555 -8.48292542 76.81111145 C-8.49542226 74.11979751 -8.47891726 71.42955123 -8.4609375 68.73828125 C-8.46109245 66.86788375 -8.46258079 64.99748592 -8.46534729 63.12709045 C-8.46673166 59.20885001 -8.45416575 55.29097546 -8.43139648 51.37280273 C-8.4029921 46.34644879 -8.40575398 41.32070195 -8.4184866 36.29430294 C-8.42543547 32.43301695 -8.41766389 28.57187173 -8.40522957 24.71060371 C-8.40070874 22.85701601 -8.40038376 21.00341323 -8.40429497 19.14982414 C-8.40719995 16.56172478 -8.39073561 13.97446764 -8.36889648 11.38647461 C-8.37339813 10.61808258 -8.37789978 9.84969055 -8.38253784 9.05801392 C-8.30997002 3.89175326 -8.30997002 3.89175326 -6.58312988 1.42344666 C-4.32825466 -0.0047728 -2.65826061 0.01021566 0 0 Z " fill="#F6F6F6" transform="translate(301.96484375,126.6015625)"/>
<path d="M0 0 C9.20130786 4.87028933 14.77473271 11.55786476 18.1875 21.4375 C22.73670938 41.31985624 22.94483181 63.5964458 12.4375 81.5 C7.74634092 87.8915535 0.99243641 92.09182131 -6.8125 93.4375 C-15.70260595 94.59646453 -22.45215492 92.54768244 -29.8125 87.4375 C-39.11660964 78.50153859 -42.70254024 66.33896202 -43.11328125 53.73828125 C-43.13259103 51.74227708 -43.13607677 49.74606684 -43.125 47.75 C-43.12008545 46.69925293 -43.1151709 45.64850586 -43.11010742 44.56591797 C-42.89189809 29.99401047 -40.69093707 15.06869986 -29.8125 4.4375 C-20.73600465 -1.4638256 -10.51307617 -4.29329812 0 0 Z " fill="#FBFBFB" transform="translate(271.8125,126.5625)"/>
<path d="M0 0 C0.70294189 0.00757324 1.40588379 0.01514648 2.13012695 0.02294922 C8.6037147 0.22874607 12.79725543 1.50974841 17.57421875 5.79296875 C21.83412159 10.3458162 23.0940594 15.50243514 23.4375 21.5625 C22.88234351 37.34480591 12.92614503 51.33142495 5.0625 64.4375 C10.0125 64.7675 14.9625 65.0975 20.0625 65.4375 C20.0625 70.7175 20.0625 75.9975 20.0625 81.4375 C5.2125 81.4375 -9.6375 81.4375 -24.9375 81.4375 C-23.33348602 77.42746504 -21.65447805 74.00535473 -19.5234375 70.28125 C-19.19010406 69.69766724 -18.85677063 69.11408447 -18.51333618 68.51281738 C-17.8071537 67.2781645 -17.09938822 66.04441586 -16.39013672 64.81152344 C-15.33289682 62.97297032 -14.28126815 61.13130243 -13.23046875 59.2890625 C-9.15396865 52.16505156 -4.9494306 45.14019035 -0.58837891 38.18652344 C3.13827192 31.9809499 5.22970782 25.74391779 4.0625 18.4375 C2.22984675 16.16910017 2.22984675 16.16910017 -0.5 16.25 C-2.88439723 16.16746677 -2.88439723 16.16746677 -3.9375 17.4375 C-4.17277773 19.78737262 -4.35136417 22.14306039 -4.5 24.5 C-4.644375 26.789375 -4.78875 29.07875 -4.9375 31.4375 C-10.8775 31.4375 -16.8175 31.4375 -22.9375 31.4375 C-23.23378167 22.05524708 -23.4624921 13.85778636 -17.6875 6.0625 C-12.45231475 1.06527771 -7.08512384 -0.10692605 0 0 Z " fill="#FBFBFB" transform="translate(200.9375,130.5625)"/>
<path d="M0 0 C6.27916253 3.29629014 10.80347919 9.90602331 13.08203125 16.56640625 C14.31176717 33.78270909 8.6310474 47.78396651 -0.73046875 62.19140625 C0.33494141 62.37316406 0.33494141 62.37316406 1.421875 62.55859375 C2.34097656 62.72617188 3.26007813 62.89375 4.20703125 63.06640625 C5.12355469 63.22882813 6.04007813 63.39125 6.984375 63.55859375 C8.11552734 63.87183594 8.11552734 63.87183594 9.26953125 64.19140625 C11.15030409 67.95295193 10.4975577 72.48963899 10.51953125 76.62890625 C10.54015625 77.59634766 10.56078125 78.56378906 10.58203125 79.56054688 C10.58976562 80.95370117 10.58976562 80.95370117 10.59765625 82.375 C10.6116748 83.65201782 10.6116748 83.65201782 10.62597656 84.95483398 C10.17934279 87.75730797 9.49232232 88.46637725 7.26953125 90.19140625 C5.04853821 90.5521698 5.04853821 90.5521698 2.4309082 90.53198242 C1.45011795 90.53175583 0.4693277 90.53152924 -0.54118347 90.53129578 C-1.5975148 90.51581192 -2.65384613 90.50032806 -3.7421875 90.484375 C-4.82554886 90.48013016 -5.90891022 90.47588531 -7.02510071 90.47151184 C-10.48964152 90.45470194 -13.95360337 90.41704473 -17.41796875 90.37890625 C-19.76496557 90.36386244 -22.11197149 90.35017351 -24.45898438 90.33789062 C-30.2163438 90.30479086 -35.97336492 90.2545683 -41.73046875 90.19140625 C-41.73046875 92.83140625 -41.73046875 95.47140625 -41.73046875 98.19140625 C-43.67578125 97.453125 -43.67578125 97.453125 -45.73046875 96.19140625 C-46.41015625 94.2734375 -46.41015625 94.2734375 -46.60546875 92.00390625 C-46.68539062 91.26785156 -46.7653125 90.53179687 -46.84765625 89.7734375 C-46.43245218 80.6251078 -40.95316795 73.67438908 -36.16601562 66.19726562 C-35.58529297 65.25560547 -35.00457031 64.31394531 -34.40625 63.34375 C-33.86911377 62.49804443 -33.33197754 61.65233887 -32.77856445 60.78100586 C-31.44362339 57.48267839 -31.83214884 55.59335013 -32.73046875 52.19140625 C-34.10512504 49.24476851 -34.10512504 49.24476851 -35.79296875 46.44140625 C-38.73046875 41.38199449 -38.73046875 41.38199449 -38.73046875 39.19140625 C-39.68953125 38.91296875 -39.68953125 38.91296875 -40.66796875 38.62890625 C-42.73046875 37.19140625 -42.73046875 37.19140625 -43.3984375 34.09375 C-44.1565227 25.18401918 -43.28536688 14.68035053 -38.3515625 7.0234375 C-28.41824895 -4.20240359 -13.36435022 -5.61576649 0 0 Z M-33.04296875 9.37890625 C-38.84244056 16.81769543 -37.91793916 25.19282672 -37.73046875 34.19140625 C-31.79046875 34.19140625 -25.85046875 34.19140625 -19.73046875 34.19140625 C-19.58609375 31.90203125 -19.44171875 29.61265625 -19.29296875 27.25390625 C-18.85546875 20.31640625 -18.85546875 20.31640625 -17.73046875 19.19140625 C-15.29296875 19.00390625 -15.29296875 19.00390625 -12.73046875 19.19140625 C-10.39102146 21.53085354 -10.41166809 22.06740364 -10.35546875 25.25390625 C-10.32710937 25.96675781 -10.29875 26.67960937 -10.26953125 27.4140625 C-11.79203031 36.58776446 -17.82897328 44.8779199 -22.41796875 52.81640625 C-23.13568647 54.06608858 -23.853133 55.31592669 -24.5703125 56.56591797 C-29.04285223 64.34588843 -33.60116936 72.06832179 -38.32421875 79.69921875 C-39.89427788 82.00478542 -39.89427788 82.00478542 -39.73046875 84.19140625 C-24.88046875 84.19140625 -10.03046875 84.19140625 5.26953125 84.19140625 C5.26953125 78.91140625 5.26953125 73.63140625 5.26953125 68.19140625 C0.31953125 67.86140625 -4.63046875 67.53140625 -9.73046875 67.19140625 C-8.8384375 65.64710938 -7.94640625 64.1028125 -7.02734375 62.51171875 C-5.84471336 60.44680854 -4.6624407 58.38169342 -3.48046875 56.31640625 C-2.60068359 54.79660156 -2.60068359 54.79660156 -1.703125 53.24609375 C4.43302834 42.49058902 10.7203862 30.80534501 7.7734375 18.04296875 C5.73593788 12.03407157 2.87299026 7.54122921 -2.90234375 4.546875 C-6.80073554 2.96844452 -10.56110049 2.74452059 -14.73046875 2.81640625 C-15.40335938 2.80480469 -16.07625 2.79320312 -16.76953125 2.78125 C-23.10319522 2.81793145 -28.82922034 4.38175673 -33.04296875 9.37890625 Z " fill="#262624" transform="translate(215.73046875,127.80859375)"/>
<path d="M0 0 C1.44729492 -0.00580078 1.44729492 -0.00580078 2.92382812 -0.01171875 C4.43299805 0.00568359 4.43299805 0.00568359 5.97265625 0.0234375 C6.97490234 0.01183594 7.97714844 0.00023438 9.00976562 -0.01171875 C9.97591797 -0.00785156 10.94207031 -0.00398438 11.9375 0 C13.25995728 0.00507568 13.25995728 0.00507568 14.60913086 0.01025391 C17.53538516 0.47847815 18.91295454 1.35277125 21.03515625 3.3984375 C21.64453125 6.31640625 21.64453125 6.31640625 21.78515625 9.5859375 C21.841875 10.67261719 21.89859375 11.75929687 21.95703125 12.87890625 C21.9828125 13.71035156 22.00859375 14.54179687 22.03515625 15.3984375 C22.51726562 14.39941406 22.999375 13.40039062 23.49609375 12.37109375 C24.13379714 11.06755299 24.77183536 9.76417599 25.41015625 8.4609375 C25.88582031 7.4719043 25.88582031 7.4719043 26.37109375 6.46289062 C28.80859375 1.51171875 28.80859375 1.51171875 31.03515625 0.3984375 C34.84196994 0.13066631 38.65747971 0.16687944 42.47265625 0.1484375 C44.0669043 0.1175 44.0669043 0.1175 45.69335938 0.0859375 C46.71236328 0.08078125 47.73136719 0.075625 48.78125 0.0703125 C49.71638428 0.0609668 50.65151855 0.05162109 51.61499023 0.04199219 C54.03515625 0.3984375 54.03515625 0.3984375 55.92602539 1.41894531 C57.76988744 4.7097297 56.90834631 7.90498146 56.03515625 11.3984375 C55.09309029 14.02366861 53.91205884 16.48062917 52.65625 18.96875 C52.15896141 19.99583572 52.15896141 19.99583572 51.65162659 21.04367065 C50.24787993 23.94210027 48.81728994 26.82702746 47.38891602 29.71337891 C46.34350727 31.83566595 45.31214061 33.96438279 44.28125 36.09375 C43.95628036 36.73764679 43.63131073 37.38154358 43.29649353 38.04495239 C41.36772078 42.03378744 40.43859778 44.98833169 41.03515625 49.3984375 C42.03933498 52.02336782 43.08480882 54.44618665 44.31640625 56.95703125 C45.00003289 58.40948973 45.6836256 59.86196418 46.3671875 61.31445312 C47.44992142 63.57837365 48.53714762 65.84007036 49.62646484 68.10083008 C50.68013809 70.29777463 51.71743642 72.50193072 52.75390625 74.70703125 C53.08201294 75.37391464 53.41011963 76.04079803 53.74816895 76.72789001 C55.79824189 81.10223831 56.63667623 84.58066647 56.03515625 89.3984375 C51.37427613 92.50569091 46.58111425 91.80706031 41.09765625 91.8359375 C40.00001953 91.86880859 38.90238281 91.90167969 37.77148438 91.93554688 C29.71811619 91.98959633 29.71811619 91.98959633 26.390625 89.109375 C25.94332031 88.21476562 25.49601562 87.32015625 25.03515625 86.3984375 C24.6896875 85.73199219 24.34421875 85.06554687 23.98828125 84.37890625 C23.33723958 82.71875 22.68619792 81.05859375 22.03515625 79.3984375 C21.87080078 80.44644531 21.87080078 80.44644531 21.703125 81.515625 C21.46529297 82.88074219 21.46529297 82.88074219 21.22265625 84.2734375 C21.07183594 85.17835938 20.92101562 86.08328125 20.765625 87.015625 C20.03515625 89.3984375 20.03515625 89.3984375 17.03515625 91.3984375 C13.57127491 91.85486744 10.08844871 91.76874242 6.59765625 91.7734375 C5.64310547 91.79792969 4.68855469 91.82242188 3.70507812 91.84765625 C2.78404297 91.85152344 1.86300781 91.85539062 0.9140625 91.859375 C-0.34555298 91.87170166 -0.34555298 91.87170166 -1.63061523 91.88427734 C-4.9240638 91.1987881 -5.92825086 90.07394824 -7.96484375 87.3984375 C-8.35436154 84.56195537 -8.50230819 82.11529637 -8.46655273 79.28100586 C-8.47195572 78.4659407 -8.4773587 77.65087555 -8.48292542 76.81111145 C-8.49542226 74.11979751 -8.47891726 71.42955123 -8.4609375 68.73828125 C-8.46109245 66.86788375 -8.46258079 64.99748592 -8.46534729 63.12709045 C-8.46673166 59.20885001 -8.45416575 55.29097546 -8.43139648 51.37280273 C-8.4029921 46.34644879 -8.40575398 41.32070195 -8.4184866 36.29430294 C-8.42543547 32.43301695 -8.41766389 28.57187173 -8.40522957 24.71060371 C-8.40070874 22.85701601 -8.40038376 21.00341323 -8.40429497 19.14982414 C-8.40719995 16.56172478 -8.39073561 13.97446764 -8.36889648 11.38647461 C-8.37339813 10.61808258 -8.37789978 9.84969055 -8.38253784 9.05801392 C-8.30997002 3.89175326 -8.30997002 3.89175326 -6.58312988 1.42344666 C-4.32825466 -0.0047728 -2.65826061 0.01021566 0 0 Z M-2.96484375 5.3984375 C-2.96484375 32.1284375 -2.96484375 58.8584375 -2.96484375 86.3984375 C2.97515625 86.3984375 8.91515625 86.3984375 15.03515625 86.3984375 C16.894807 84.53878675 16.27603174 81.44954631 16.3515625 78.95703125 C16.39345703 77.65185547 16.43535156 76.34667969 16.47851562 75.00195312 C16.51833233 73.6132842 16.5580445 72.22461228 16.59765625 70.8359375 C16.64083614 69.44334567 16.68445025 68.05076722 16.72851562 66.65820312 C16.83501501 63.23838949 16.93702548 59.81849987 17.03515625 56.3984375 C17.42372803 57.24140381 17.8122998 58.08437012 18.21264648 58.95288086 C19.65147989 62.07153773 21.09227445 65.18927246 22.53442383 68.30639648 C23.15891504 69.65726702 23.78261571 71.00850329 24.40551758 72.36010742 C25.29953142 74.29962672 26.1963537 76.23782511 27.09375 78.17578125 C27.63314209 79.34359131 28.17253418 80.51140137 28.72827148 81.71459961 C29.78654707 84.25855129 29.78654707 84.25855129 31.03515625 85.3984375 C32.52387485 85.48513182 34.01660125 85.50547244 35.5078125 85.49609375 C36.85649414 85.49125977 36.85649414 85.49125977 38.23242188 85.48632812 C39.17794922 85.47794922 40.12347656 85.46957031 41.09765625 85.4609375 C42.52174805 85.45416992 42.52174805 85.45416992 43.97460938 85.44726562 C46.3281869 85.4354386 48.68164102 85.41895775 51.03515625 85.3984375 C48.55065549 79.25965591 45.9821657 73.18917421 43.10546875 67.22265625 C42.3784375 65.70381836 42.3784375 65.70381836 41.63671875 64.15429688 C40.64029008 62.08367592 39.63217567 60.01864343 38.61328125 57.95898438 C37.89785156 56.44981445 37.89785156 56.44981445 37.16796875 54.91015625 C36.73371582 54.01772217 36.29946289 53.12528809 35.85205078 52.20581055 C33.9954634 45.82538667 36.67662712 40.32468615 39.37890625 34.63671875 C39.7080603 33.92364059 40.03721436 33.21056244 40.37634277 32.47587585 C41.4206985 30.21679282 42.47717626 27.9636678 43.53515625 25.7109375 C44.59111162 23.44662827 45.64440245 21.18114156 46.69396973 18.91386414 C47.34532328 17.50845386 48.00066938 16.10488519 48.66052246 14.70344543 C50.11441154 11.58139464 51.19509747 8.75867262 52.03515625 5.3984375 C45.76515625 5.3984375 39.49515625 5.3984375 33.03515625 5.3984375 C27.32265403 16.58035674 22.14293498 27.92558066 17.03515625 39.3984375 C16.70515625 28.1784375 16.37515625 16.9584375 16.03515625 5.3984375 C9.76515625 5.3984375 3.49515625 5.3984375 -2.96484375 5.3984375 Z " fill="#252523" transform="translate(301.96484375,126.6015625)"/>
<path d="M0 0 C9.20130786 4.87028933 14.77473271 11.55786476 18.1875 21.4375 C22.73670938 41.31985624 22.94483181 63.5964458 12.4375 81.5 C7.74634092 87.8915535 0.99243641 92.09182131 -6.8125 93.4375 C-15.70260595 94.59646453 -22.45215492 92.54768244 -29.8125 87.4375 C-39.11660964 78.50153859 -42.70254024 66.33896202 -43.11328125 53.73828125 C-43.13259103 51.74227708 -43.13607677 49.74606684 -43.125 47.75 C-43.12008545 46.69925293 -43.1151709 45.64850586 -43.11010742 44.56591797 C-42.89189809 29.99401047 -40.69093707 15.06869986 -29.8125 4.4375 C-20.73600465 -1.4638256 -10.51307617 -4.29329812 0 0 Z M-30.3125 13.1015625 C-32.99265565 17.27534656 -34.44528442 21.69690328 -35.8125 26.4375 C-36.03808594 27.12070313 -36.26367188 27.80390625 -36.49609375 28.5078125 C-40.67703381 43.21318787 -38.51963554 62.89863817 -31.8125 76.4375 C-28.25356947 81.66765582 -24.72998517 85.01999082 -18.8125 87.4375 C-11.88084172 88.33009173 -4.58252627 88.51531475 1.51953125 84.7421875 C9.3719221 78.60003635 12.99906065 69.78822279 14.8125 60.09765625 C16.47300607 43.89042511 16.74430525 25.28855255 7.1875 11.4375 C2.02284398 6.14938607 -3.74197539 3.47124877 -11.125 3.0625 C-19.26200275 3.30866143 -25.26713309 6.81821205 -30.3125 13.1015625 Z " fill="#282826" transform="translate(271.8125,126.5625)"/>
<path d="M0 0 C3.6875 0.4375 3.6875 0.4375 6.0625 3.25 C9.25254102 9.50738815 8.90814084 15.1293129 8.92773438 22.04174805 C8.93738523 24.10051736 8.96839484 26.15826404 9 28.21679688 C9.02784533 35.31387597 8.9299571 41.05489635 5.6875 47.4375 C3.6875 49.4375 3.6875 49.4375 0.8125 49.8125 C-2.3125 49.4375 -2.3125 49.4375 -4.5625 48 C-9.43528096 40.86485646 -8.67841665 31.16356072 -8.6875 22.875 C-8.71199219 21.69486328 -8.73648438 20.51472656 -8.76171875 19.29882812 C-8.78561255 12.182457 -8.13929958 7.48560278 -4.3125 1.4375 C-3.3125 0.4375 -3.3125 0.4375 0 0 Z " fill="#252523" transform="translate(260.3125,147.5625)"/>
<path d="M0 0 C-0.35419433 6.02130363 -1.75637157 7.90270359 -6 12 C-13.20585086 21.23041524 -19.49321334 31.19998558 -25.95629883 40.95336914 C-30.51535495 47.81914504 -35.17601652 54.5966445 -39.96630859 61.30273438 C-43.54062426 66.31297096 -46.951528 71.4048977 -50.28125 76.58203125 C-51.99704008 78.99583592 -53.846586 80.97409078 -56 83 C-49.51054016 60.40007882 -33.24853562 39.34175131 -19 21 C-18.15764982 19.89153919 -17.31655915 18.78212039 -16.4765625 17.671875 C-3.07117944 0 -3.07117944 0 0 0 Z " fill="#A5A5A5" transform="translate(115,128)"/>
<path d="M0 0 C2.44214882 1.80506652 2.97645804 2.88276422 3.58203125 5.8984375 C4.22335231 11.10235746 4.22330076 16.32611136 4.25 21.5625 C4.270625 22.57763672 4.29125 23.59277344 4.3125 24.63867188 C4.34201177 30.28648672 4.10646316 34.21768171 1 39 C0.34 38.67 -0.32 38.34 -1 38 C-3.10095273 31.61576687 -3.30435078 25.61811665 -3.25 18.9375 C-3.25773437 17.98294922 -3.26546875 17.02839844 -3.2734375 16.04492188 C-3.23808391 3.23808391 -3.23808391 3.23808391 0 0 Z " fill="#F6F6F5" transform="translate(260,153)"/>
<path d="M0 0 C5.94 0 11.88 0 18 0 C16.35848487 4.10378782 14.61539709 7.53701601 12.375 11.3125 C11.74335938 12.38113281 11.11171875 13.44976562 10.4609375 14.55078125 C9.73777344 15.76314453 9.73777344 15.76314453 9 17 C5.8086921 15.40434605 4.88215291 12.15338879 3.375 9.0625 C3.05015625 8.41603516 2.7253125 7.76957031 2.390625 7.10351562 C0 2.26702009 0 2.26702009 0 0 Z " fill="#A5A5A5" transform="translate(177,167)"/>
<path d="M0 0 C0.99 0.33 1.98 0.66 3 1 C-2.84848193 6.36639448 -8.8036454 11.53572287 -14.984375 16.515625 C-17.25995724 18.39032746 -19.48930527 20.28903495 -21.703125 22.234375 C-22.3331543 22.78569092 -22.96318359 23.33700684 -23.61230469 23.9050293 C-24.85270706 24.99415135 -26.0879231 26.08921402 -27.31738281 27.19067383 C-31.66771138 31 -31.66771138 31 -35 31 C-34.76625337 27.73508743 -33.88346748 26.89503311 -31.40234375 24.66015625 C-30.25461239 23.78472779 -29.09906915 22.9194827 -27.9375 22.0625 C-26.66680942 21.09657531 -25.3973279 20.12905851 -24.12890625 19.16015625 C-23.1236792 18.39662842 -23.1236792 18.39662842 -22.09814453 17.61767578 C-18.46561775 14.81698665 -14.92367507 11.90569528 -11.375 9 C-9.45135536 7.42619252 -7.52700769 5.8537462 -5.59277344 4.29296875 C-4.28890166 3.23452225 -3.00475484 2.15181856 -1.7265625 1.0625 C-1.15679687 0.711875 -0.58703125 0.36125 0 0 Z " fill="#111111" transform="translate(199,41)"/>
<path d="M0 0 C0.33 0 0.66 0 1 0 C1 1.65 1 3.3 1 5 C0.01 5.33 -0.98 5.66 -2 6 C-2.72024441 7.64422329 -3.37833624 9.31602958 -4 11 C-5.04933112 12.76298201 -6.15618228 14.49276382 -7.3125 16.1875 C-8.17294922 17.47720703 -8.17294922 17.47720703 -9.05078125 18.79296875 C-11.22056552 21.24973851 -12.90069514 22.04513671 -16 23 C-14.59195334 19.99811392 -12.94319563 17.38827168 -10.99609375 14.70703125 C-10.42052734 13.91232422 -9.84496094 13.11761719 -9.25195312 12.29882812 C-8.35379883 11.0680957 -8.35379883 11.0680957 -7.4375 9.8125 C-6.83486328 8.98041016 -6.23222656 8.14832031 -5.61132812 7.29101562 C-1.15715681 1.15715681 -1.15715681 1.15715681 0 0 Z " fill="#9D9D9D" transform="translate(126,149)"/>
<path d="M0 0 C3.3 0 6.6 0 10 0 C8.79157144 4.43090471 7.48331435 6.98112756 4 10 C3.32845067 8.71086513 2.66291141 7.41859796 2 6.125 C1.62875 5.40570313 1.2575 4.68640625 0.875 3.9453125 C0 2 0 2 0 0 Z " fill="#FAFAFA" transform="translate(184,168)"/>
<path d="M0 0 C0.66 0.33 1.32 0.66 2 1 C-0.95254306 5.38663541 -3.51322947 9.04817729 -8 12 C-8.99 12 -9.98 12 -11 12 C-10.67567593 8.93617261 -10.01098513 8.01029035 -7.71484375 5.859375 C-6.79832031 5.16328125 -5.88179687 4.4671875 -4.9375 3.75 C-4.01839844 3.04359375 -3.09929687 2.3371875 -2.15234375 1.609375 C-1.44207031 1.07828125 -0.73179687 0.5471875 0 0 Z " fill="#0B0B0B" transform="translate(175,60)"/>
<path d="M0 0 C0.66 0.33 1.32 0.66 2 1 C0.27705085 2.77726278 -1.45287096 4.54669663 -3.1875 6.3125 C-3.67025391 6.81201172 -4.15300781 7.31152344 -4.65039062 7.82617188 C-7.54882553 10.76351194 -10.36101656 13.05078218 -14 15 C-11.16037299 8.62133045 -5.4725275 4.14585416 0 0 Z " fill="#121212" transform="translate(161,72)"/>
<path d="M0 0 C0.66 0 1.32 0 2 0 C1.67 6.93 1.34 13.86 1 21 C0.67 21 0.34 21 0 21 C-0.06058594 20.38511719 -0.12117187 19.77023438 -0.18359375 19.13671875 C-0.26738281 18.32847656 -0.35117188 17.52023438 -0.4375 16.6875 C-0.51871094 15.88699219 -0.59992188 15.08648437 -0.68359375 14.26171875 C-0.95265693 11.83912821 -0.95265693 11.83912821 -2 9 C-1.66015625 6.73828125 -1.66015625 6.73828125 -1.0625 4.3125 C-0.86785156 3.50425781 -0.67320312 2.69601563 -0.47265625 1.86328125 C-0.31667969 1.24839844 -0.16070312 0.63351563 0 0 Z " fill="#DADAD9" transform="translate(228,157)"/>
<path d="M0 0 C1.98 0.99 1.98 0.99 4 2 C4 4.64 4 7.28 4 10 C3.01 9.67 2.02 9.34 1 9 C0.67 6.03 0.34 3.06 0 0 Z " fill="#A2A2A2" transform="translate(169,215)"/>
<path d="M0 0 C0.33 0.99 0.66 1.98 1 3 C-0.21484375 5.04296875 -0.21484375 5.04296875 -1.9375 7.1875 C-2.50339844 7.90292969 -3.06929687 8.61835938 -3.65234375 9.35546875 C-4.09707031 9.89816406 -4.54179688 10.44085938 -5 11 C-5.33 10.34 -5.66 9.68 -6 9 C-5.29296875 7.08984375 -5.29296875 7.08984375 -4.1875 4.9375 C-3.83042969 4.22464844 -3.47335938 3.51179687 -3.10546875 2.77734375 C-2 1 -2 1 0 0 Z " fill="#969696" transform="translate(65,200)"/>
</svg>